<mxfile host="app.diagrams.net" modified="2023-10-16T02:41:18.276Z" agent="Mozilla/5.0 (Macintosh; Intel Mac OS X 10_15_7) AppleWebKit/537.36 (KHTML, like Gecko) Chrome/117.0.0.0 Safari/537.36" version="22.0.4" etag="Qa0oFQibIlLipxPxqyF7" type="github">
  <diagram name="第 1 页" id="rokv18whLepbX8qtPJHA">
    <mxGraphModel>
      <root>
        <mxCell id="0" />
        <mxCell id="1" parent="0" />
      </root>
    </mxGraphModel>
  </diagram>
</mxfile>
